<svg xmlns="http://www.w3.org/2000/svg" viewBox="0 0 500 500"><g id="freepik--Houses--inject-371"><polygon points="401.16 107.72 374.51 81.07 353.75 81.07 376.79 104.11 370.45 104.11 370.45 133.66 394.82 133.66 394.82 107.72 401.16 107.72" style="fill:#407BFF"></polygon><polygon points="401.16 107.72 374.51 81.07 353.75 81.07 376.79 104.11 370.45 104.11 370.45 133.66 394.82 133.66 394.82 107.72 401.16 107.72" style="fill:#fff;opacity:0.4"></polygon><polygon points="380.4 107.72 353.75 81.07 327.1 107.72 337.05 107.72 337.05 133.66 370.45 133.66 370.45 107.72 380.4 107.72" style="fill:#407BFF"></polygon><polygon points="380.4 107.72 353.75 81.07 327.1 107.72 337.05 107.72 337.05 133.66 370.45 133.66 370.45 107.72 380.4 107.72" style="fill:#fff;opacity:0.7000000000000001"></polygon><polygon points="418.32 214.1 391.67 187.44 370.91 187.44 393.95 210.48 387.61 210.48 387.61 240.03 411.98 240.03 411.98 214.1 418.32 214.1" style="fill:#407BFF"></polygon><polygon points="418.32 214.1 391.67 187.44 370.91 187.44 393.95 210.48 387.61 210.48 387.61 240.03 411.98 240.03 411.98 214.1 418.32 214.1" style="fill:#fff;opacity:0.4"></polygon><polygon points="397.56 214.1 370.91 187.44 344.26 214.1 354.2 214.1 354.2 240.03 387.61 240.03 387.61 214.1 397.56 214.1" style="fill:#407BFF"></polygon><polygon points="397.56 214.1 370.91 187.44 344.26 214.1 354.2 214.1 354.2 240.03 387.61 240.03 387.61 214.1 397.56 214.1" style="fill:#fff;opacity:0.7000000000000001"></polygon><polygon points="298.38 241.81 271.72 215.16 250.97 215.16 274.01 238.19 267.67 238.19 267.67 267.75 292.04 267.75 292.04 241.81 298.38 241.81" style="fill:#407BFF"></polygon><polygon points="298.38 241.81 271.72 215.16 250.97 215.16 274.01 238.19 267.67 238.19 267.67 267.75 292.04 267.75 292.04 241.81 298.38 241.81" style="fill:#fff;opacity:0.4"></polygon><polygon points="277.62 241.81 250.97 215.16 224.32 241.81 234.26 241.81 234.26 267.74 267.67 267.74 267.67 241.81 277.62 241.81" style="fill:#407BFF"></polygon><polygon points="277.62 241.81 250.97 215.16 224.32 241.81 234.26 241.81 234.26 267.74 267.67 267.74 267.67 241.81 277.62 241.81" style="fill:#fff;opacity:0.7000000000000001"></polygon><polygon points="296.79 152.26 282.45 152.26 280.4 150.22 263.75 119.22 296.79 152.26" style="fill:#2f54c6"></polygon><rect x="282.41" y="145.74" width="30.21" height="36.64" transform="translate(595.02 328.11) rotate(180)" style="fill:#407BFF"></rect><rect x="282.41" y="145.74" width="30.21" height="36.64" transform="translate(595.02 328.11) rotate(180)" style="opacity:0.30000000000000004"></rect><polygon points="294.74 150.22 320.48 150.22 287.43 117.17 261.7 117.17 294.74 150.22" style="fill:#407BFF"></polygon><polygon points="294.74 150.22 320.48 150.22 287.43 117.17 261.7 117.17 294.74 150.22" style="opacity:0.30000000000000004"></polygon><polygon points="282.4 140.95 282.4 182.37 240.99 182.37 240.99 140.95 261.7 120.84 261.91 121.05 263.75 122.83 282.4 140.95" style="fill:#407BFF"></polygon><polygon points="263.75 119.22 263.75 133.56 245.04 152.26 240.99 152.26 240.99 141.98 261.91 121.05 263.75 119.22" style="opacity:0.30000000000000004"></polygon><polygon points="294.74 150.22 280.4 150.22 261.7 131.51 261.7 117.17 294.74 150.22" style="fill:#407BFF"></polygon><polygon points="228.65 150.22 242.99 150.22 261.7 131.51 261.7 117.17 228.65 150.22" style="fill:#407BFF"></polygon></g><g id="freepik--Character--inject-371"><path d="M224,192.38c-8.53,6.92-17.33,13.43-26.18,19.83S180,224.83,171,231s-18.15,12.11-27.34,18c-4.57,3-9.21,5.84-13.82,8.76a25.59,25.59,0,0,1-7.44,3.52A22.06,22.06,0,0,1,118,262a18.41,18.41,0,0,1-5-.27,10,10,0,0,1-7.8-11.82c0-.15.07-.34.11-.5a18,18,0,0,1,2-4.6,21.52,21.52,0,0,1,2.59-3.57,25.63,25.63,0,0,1,6.43-5.14c4.65-2.86,9.26-5.77,13.93-8.57,9.31-5.69,18.71-11.22,28.16-16.68s19-10.75,28.63-15.91,19.34-10.19,29.3-14.83A7.31,7.31,0,0,1,224,192.38Z" style="fill:#407BFF"></path><path d="M224,192.38c-8.53,6.92-17.33,13.43-26.18,19.83S180,224.83,171,231s-18.15,12.11-27.34,18c-4.57,3-9.21,5.84-13.82,8.76a25.59,25.59,0,0,1-7.44,3.52A22.06,22.06,0,0,1,118,262a18.41,18.41,0,0,1-5-.27,10,10,0,0,1-7.8-11.82c0-.15.07-.34.11-.5a18,18,0,0,1,2-4.6,21.52,21.52,0,0,1,2.59-3.57,25.63,25.63,0,0,1,6.43-5.14c4.65-2.86,9.26-5.77,13.93-8.57,9.31-5.69,18.71-11.22,28.16-16.68s19-10.75,28.63-15.91,19.34-10.19,29.3-14.83A7.31,7.31,0,0,1,224,192.38Z" style="fill:#407BFF"></path><path d="M224,192.38c-8.53,6.92-17.33,13.43-26.18,19.83S180,224.83,171,231s-18.15,12.11-27.34,18c-4.57,3-9.21,5.84-13.82,8.76a25.59,25.59,0,0,1-7.44,3.52A22.06,22.06,0,0,1,118,262a18.41,18.41,0,0,1-5-.27,10,10,0,0,1-7.8-11.82c0-.15.07-.34.11-.5a18,18,0,0,1,2-4.6,21.52,21.52,0,0,1,2.59-3.57,25.63,25.63,0,0,1,6.43-5.14c4.65-2.86,9.26-5.77,13.93-8.57,9.31-5.69,18.71-11.22,28.16-16.68s19-10.75,28.63-15.91,19.34-10.19,29.3-14.83A7.31,7.31,0,0,1,224,192.38Z" style="fill:#fff;opacity:0.5"></path><polygon points="187.1 407.63 195.26 405.74 191.44 386.71 183.28 388.6 187.1 407.63" style="fill:#ebb376"></polygon><path d="M132.08,180.23c-1.13,4-2.22,8.21-3.26,12.33s-2,8.3-2.8,12.46c-.44,2.07-.82,4.19-1.15,6.14s-.52,4-.64,6.05a59.49,59.49,0,0,0,0,6.12c0,1,.13,2,.23,3.06s.28,2.07.42,2.94l-4,1.51a26.33,26.33,0,0,1-1.35-3.32,33.22,33.22,0,0,1-1-3.33,45.37,45.37,0,0,1-1.12-6.84,53.85,53.85,0,0,1-.1-7c.16-2.36.44-4.53.75-6.73.63-4.39,1.44-8.74,2.4-13s2-8.55,3.35-12.86Z" style="fill:#ebb376"></path><path d="M120.31,181.61l8.41,6.7,5.05,4s.53-1.41,1.17-3.43c1.22-3.9,2.81-10.08,1.71-12.92-1.73-4.5-5-8.56-9.14-7.66C124,169.09,120.31,181.61,120.31,181.61Z" style="fill:#263238"></path><polygon points="131.93 407.69 140.3 407.69 139.65 388.29 131.27 388.29 131.93 407.69" style="fill:#ebb376"></polygon><polygon points="191.44 386.72 193.49 396.91 185.25 398.41 183.27 388.61 191.44 386.72" style="fill:#da9d62"></polygon><polygon points="131.27 388.29 139.65 388.29 139.98 398.29 131.6 398.29 131.27 388.29" style="fill:#da9d62"></polygon><path d="M158.57,219.12s-4.86,57.49-9.9,89.89c-4.07,26.17-7.29,87.35-7.29,87.35H130s-5.44-59.08-3.37-85c5.23-65.49-4-77.09,6.95-92.27Z" style="fill:#407BFF"></path><path d="M158.57,219.12s-4.86,57.49-9.9,89.89c-4.07,26.17-7.29,87.35-7.29,87.35H130s-5.44-59.08-3.37-85c5.23-65.49-4-77.09,6.95-92.27Z" style="opacity:0.6000000000000001"></path><path d="M121.43,230.19l-4.94,3.36.7,2.87s10.29-5.34,7.54-7.48Z" style="fill:#ebb376"></path><path d="M143.83,408.18a10.18,10.18,0,0,1-2.21-.3.22.22,0,0,1-.15-.16.2.2,0,0,1,.09-.2c.29-.19,2.82-1.83,3.8-1.39a.67.67,0,0,1,.4.56,1.13,1.13,0,0,1-.33,1.05A2.38,2.38,0,0,1,143.83,408.18Zm-1.65-.59c1.46.3,2.56.24,3-.14a.77.77,0,0,0,.21-.71.3.3,0,0,0-.17-.25C144.69,406.26,143.22,407,142.18,407.59Z" style="fill:#407BFF"></path><path d="M141.67,407.88a.16.16,0,0,1-.1,0,.21.21,0,0,1-.1-.17c0-.11,0-2.52.92-3.33a1,1,0,0,1,.84-.26.69.69,0,0,1,.67.55c.19,1-1.34,2.76-2.13,3.21A.18.18,0,0,1,141.67,407.88Zm1.42-3.39a.7.7,0,0,0-.44.17,4.52,4.52,0,0,0-.77,2.64c.79-.64,1.75-2,1.63-2.57,0-.09-.07-.21-.33-.24Z" style="fill:#407BFF"></path><path d="M196,404.48a.21.21,0,0,1-.16-.33c.27-.32,2.6-3.06,3.79-3.06h.08a.61.61,0,0,1,.51.35,1.08,1.08,0,0,1,0,1c-.52,1.1-2.87,1.72-4.23,2Zm3.62-3c-.65,0-2.09,1.36-3.08,2.47,1.83-.43,3.07-1,3.36-1.65a.67.67,0,0,0,0-.67.25.25,0,0,0-.2-.15Z" style="fill:#407BFF"></path><path d="M196,404.48h0a.17.17,0,0,1-.14-.13c0-.09-.72-2.25-.08-3.46a1.44,1.44,0,0,1,.88-.74c.53-.16.79,0,.9.23.51.82-.62,3.24-1.37,4A.21.21,0,0,1,196,404.48Zm1-4a.74.74,0,0,0-.23,0,1.05,1.05,0,0,0-.65.54,4.61,4.61,0,0,0,0,2.8c.71-1,1.4-2.79,1.1-3.28A.23.23,0,0,0,196.94,400.48Z" style="fill:#407BFF"></path><path d="M142.4,148.07c1,5,3,15-.45,18.35,0,0,1.36,5,10.6,5,10.15,0,4.85-5,4.85-5-5.54-1.32-5.4-5.43-4.43-9.3Z" style="fill:#ebb376"></path><path d="M162.58,137.41a.39.39,0,0,1-.23-.07.4.4,0,0,1-.09-.56,4,4,0,0,1,3.19-1.7.4.4,0,0,1,0,.79,3.15,3.15,0,0,0-2.52,1.38A.39.39,0,0,1,162.58,137.41Z" style="fill:#263238"></path><path d="M164.8,142.18a17.91,17.91,0,0,0,2.24,4.41,2.93,2.93,0,0,1-2.43.35Z" style="fill:#de5753"></path><path d="M164.24,141c0,.68.31,1.24.75,1.25s.82-.51.85-1.19-.31-1.23-.75-1.25S164.27,140.33,164.24,141Z" style="fill:#263238"></path><path d="M164.89,139.84l1.64-.4S165.65,140.67,164.89,139.84Z" style="fill:#263238"></path><path d="M141,406.72h-9.41a.65.65,0,0,0-.67.57l-1.07,7.44a1.33,1.33,0,0,0,1.34,1.49c3.28-.05,4.86-.25,9-.25,2.55,0,6.26.27,9.78.27s3.7-3.48,2.24-3.79c-6.56-1.42-7.6-3.36-9.81-5.22A2.21,2.21,0,0,0,141,406.72Z" style="fill:#263238"></path><path d="M195.1,403.59l-8.69,3.61a.66.66,0,0,0-.4.78l1.86,7.29a1.34,1.34,0,0,0,1.81.86c3-1.31,4.4-2.09,8.22-3.68,2.35-1,7.32-2.75,10.57-4.1s2.08-4.63.61-4.36c-6.6,1.22-9.74.41-12.49-.46A2.18,2.18,0,0,0,195.1,403.59Z" style="fill:#263238"></path><path d="M176.18,176.79c1.63,3.84,3.39,7.77,5.17,11.59q1.35,2.88,2.81,5.66c1,1.86,2,3.68,3,5.42.53.86,1.06,1.72,1.61,2.51l.82,1.14a4.5,4.5,0,0,0,.57.66,6.89,6.89,0,0,0,3.89,1.66c3.41.49,7.69-.2,11.52-1.23l1.78,3.85a28.48,28.48,0,0,1-3.14,1.63,28.07,28.07,0,0,1-3.27,1.28,23.46,23.46,0,0,1-7.3,1.25,14.83,14.83,0,0,1-4.1-.54,12.47,12.47,0,0,1-4.11-2,12.71,12.71,0,0,1-1.75-1.61c-.45-.51-.78-.94-1.18-1.42-.75-.94-1.42-1.89-2.09-2.84a103.6,103.6,0,0,1-6.72-11.7c-2-4-3.8-8-5.46-12.14Z" style="fill:#ebb376"></path><path d="M204.71,208.52l9.14-1.44-2.43-5.18s-7.08,1.23-8.44,4.43Z" style="fill:#ebb376"></path><polygon points="213.84 203.04 212.84 200.83 211.42 201.9 213.84 207.08 213.84 203.04" style="fill:#ebb376"></polygon><path d="M141.64,137.79c.18,8.31.08,11.83,4.1,16.25,6,6.65,16.22,4.61,18.52-3.59,2.07-7.38,1.42-19.73-6.56-23.35A11.34,11.34,0,0,0,141.64,137.79Z" style="fill:#ebb376"></path><path d="M134.94,122.78c8.54-6.19,18.08-2.68,23.3,1.6,5.46,4.48,4.59,13.09,1.25,16.65a4.4,4.4,0,0,1,.56,3.61v0a10.85,10.85,0,0,1-8,12.2l-.47.12c-10.67,2.54-23-4.68-24.86-15.48C125.59,134.89,127.39,128.24,134.94,122.78Z" style="fill:#263238"></path><path d="M157.58,141.64a6.86,6.86,0,0,0,1.9,4.17c1.48,1.53,3,.65,3.27-1.16.23-1.63-.26-4.39-2.06-5.26S157.45,139.79,157.58,141.64Z" style="fill:#ebb376"></path><path d="M147,246c-.95,17.18,3.19,30.15,5.08,37.74,1.34-11.22,2.57-22.93,3.6-33.26C152.15,238.78,147.69,233.07,147,246Z" style="opacity:0.30000000000000004"></path><polygon points="142.95 396.58 128.4 396.58 127.63 391.48 143.03 390.96 142.95 396.58" style="fill:#407BFF"></polygon><path d="M128.72,188.31l5.05,4s.53-1.41,1.17-3.43l-3-14.85Z" style="opacity:0.30000000000000004"></path><path d="M139.7,124.17c2.61-2.89,11.48-7.3,19.09-3.84a12.4,12.4,0,0,1,7.26,11.32l-6.86,4.6Z" style="fill:#263238"></path><path d="M132.7,131.76c3.77-3.09,8-14.29,0-10.39S122.27,140.31,132.7,131.76Z" style="fill:#407BFF"></path><path d="M133.55,124.58c1.63-4.76-9.12-14.23-16.37-5.23S128.86,138.28,133.55,124.58Z" style="fill:#263238"></path><path d="M150.37,131.22c-6.25-2.66-9.36-12.74,1.37-12.45S162.16,136.25,150.37,131.22Z" style="fill:#407BFF"></path><path d="M148.35,126c-3.79-4.73.4-16.89,11.27-13S157.05,136.81,148.35,126Z" style="fill:#263238"></path><path d="M167.56,219.12S177,283.62,180.32,309c3.45,26.35,13.53,85.43,13.53,85.43l-11.2,1.71s-17.7-56.35-22.63-82c-5.38-27.95-16-95-16-95Z" style="fill:#407BFF"></path><path d="M167.56,219.12S177,283.62,180.32,309c3.45,26.35,13.53,85.43,13.53,85.43l-11.2,1.71s-17.7-56.35-22.63-82c-5.38-27.95-16-95-16-95Z" style="opacity:0.6000000000000001"></path><path d="M171.56,168.57c4.16,1,9.29,12.44,9.29,12.44l-9.91,12.7s-10.24-14.49-8.87-18.91C163.49,170.19,166.51,167.34,171.56,168.57Z" style="fill:#263238"></path><path d="M158,168.05c1.37.2.1-2.93-.47-3.26-1.31-.78-18-2.35-17.81-.59A4.71,4.71,0,0,0,141,167C141.75,167.5,146,166.12,158,168.05Z" style="fill:#407BFF"></path><path d="M158,168.05c1.37.2.1-2.93-.47-3.26-1.31-.78-18-2.35-17.81-.59A4.71,4.71,0,0,0,141,167C141.75,167.5,146,166.12,158,168.05Z" style="fill:#fff;opacity:0.6000000000000001"></path><path d="M171.56,168.57s4,1.4-4,50.55h-34c.57-13.84.59-22.38-6-50.8a100.27,100.27,0,0,1,14.44-1.9,107.54,107.54,0,0,1,15.45,0C164,167,171.56,168.57,171.56,168.57Z" style="fill:#263238"></path><path d="M133,217.13l-1.53,3c-.12.24.16.48.55.48h35.68c.3,0,.56-.15.58-.35l.3-3c0-.21-.24-.39-.58-.39H133.58A.6.6,0,0,0,133,217.13Z" style="fill:#407BFF"></path><path d="M133,217.13l-1.53,3c-.12.24.16.48.55.48h35.68c.3,0,.56-.15.58-.35l.3-3c0-.21-.24-.39-.58-.39H133.58A.6.6,0,0,0,133,217.13Z" style="fill:#fff;opacity:0.6000000000000001"></path><path d="M137.66,221h-.93c-.18,0-.32-.1-.31-.21l.44-4c0-.12.17-.21.35-.21h.93c.18,0,.32.09.31.21l-.44,4C138,220.88,137.84,221,137.66,221Z" style="fill:#407BFF"></path><path d="M160,221h-.92c-.19,0-.33-.1-.31-.21l.43-4c0-.12.17-.21.36-.21h.92c.18,0,.32.09.31.21l-.43,4C160.36,220.88,160.2,221,160,221Z" style="fill:#407BFF"></path><path d="M137.66,221h-.93c-.18,0-.32-.1-.31-.21l.44-4c0-.12.17-.21.35-.21h.93c.18,0,.32.09.31.21l-.44,4C138,220.88,137.84,221,137.66,221Z" style="opacity:0.6000000000000001"></path><path d="M160,221h-.92c-.19,0-.33-.1-.31-.21l.43-4c0-.12.17-.21.36-.21h.92c.18,0,.32.09.31.21l-.43,4C160.36,220.88,160.2,221,160,221Z" style="opacity:0.6000000000000001"></path><polygon points="195.5 394.43 181.16 396.87 179.53 391.46 194.88 388.83 195.5 394.43" style="fill:#407BFF"></polygon><path d="M338.41,115.26a72.81,72.81,0,1,0-23.2,100.33A72.81,72.81,0,0,0,338.41,115.26Zm-110.49,69a57.45,57.45,0,1,1,79.16,18.31A57.45,57.45,0,0,1,227.92,184.25Z" style="fill:#407BFF"></path><path d="M338.41,115.26a72.81,72.81,0,1,0-23.2,100.33A72.81,72.81,0,0,0,338.41,115.26Zm-110.49,69a57.45,57.45,0,1,1,79.16,18.31A57.45,57.45,0,0,1,227.92,184.25Z" style="fill:#407BFF"></path><path d="M338.41,115.26a72.81,72.81,0,1,0-23.2,100.33A72.81,72.81,0,0,0,338.41,115.26Zm-110.49,69a57.45,57.45,0,1,1,79.16,18.31A57.45,57.45,0,0,1,227.92,184.25Z" style="fill:#fff;opacity:0.5"></path><path d="M330.2,120.39a63.13,63.13,0,1,1-87-20.12A63.13,63.13,0,0,1,330.2,120.39Z" style="fill:#fafafa;opacity:0.2"></path><path d="M339.17,144.89l-98,61.18a63.11,63.11,0,0,1-19.41-21l107-66.81A63.16,63.16,0,0,1,339.17,144.89Z" style="fill:#e6e6e6;opacity:0.1"></path></g></svg>